<?xml version="1.0" encoding="UTF-8"?>
<svg version="1.1" xmlns="http://www.w3.org/2000/svg" width="32" height="32">
<path d="M0 0 C1.051875 -0.00515625 2.10375 -0.0103125 3.1875 -0.015625 C4.280625 -0.00015625 5.37375 0.0153125 6.5 0.03125 C8.1396875 0.00804688 8.1396875 0.00804688 9.8125 -0.015625 C10.864375 -0.01046875 11.91625 -0.0053125 13 0 C14.43859375 0.00676758 14.43859375 0.00676758 15.90625 0.01367188 C19.3011717 0.69112237 20.46832431 1.75266926 22.5 4.53125 C23.01757812 7.125 23.01757812 7.125 23.03125 10.03125 C23.03898437 11.6090625 23.03898437 11.6090625 23.046875 13.21875 C23.03140625 14.311875 23.0159375 15.405 23 16.53125 C23.01546875 17.624375 23.0309375 18.7175 23.046875 19.84375 C23.04171875 20.895625 23.0365625 21.9475 23.03125 23.03125 C23.02673828 23.9903125 23.02222656 24.949375 23.01757812 25.9375 C22.34012763 29.3324217 21.27858074 30.49957431 18.5 32.53125 C15.90625 33.04882812 15.90625 33.04882812 13 33.0625 C11.948125 33.06765625 10.89625 33.0728125 9.8125 33.078125 C8.719375 33.06265625 7.62625 33.0471875 6.5 33.03125 C5.406875 33.04671875 4.31375 33.0621875 3.1875 33.078125 C2.135625 33.07296875 1.08375 33.0678125 0 33.0625 C-0.9590625 33.05798828 -1.918125 33.05347656 -2.90625 33.04882812 C-6.3011717 32.37137763 -7.46832431 31.30983074 -9.5 28.53125 C-10.01757812 25.9375 -10.01757812 25.9375 -10.03125 23.03125 C-10.03640625 21.979375 -10.0415625 20.9275 -10.046875 19.84375 C-10.03140625 18.750625 -10.0159375 17.6575 -10 16.53125 C-10.01546875 15.438125 -10.0309375 14.345 -10.046875 13.21875 C-10.03914062 11.6409375 -10.03914062 11.6409375 -10.03125 10.03125 C-10.02673828 9.0721875 -10.02222656 8.113125 -10.01757812 7.125 C-8.88515929 1.45008601 -5.39576194 0.02538329 0 0 Z " fill="#346DB8" transform="translate(9.5,-0.53125)"/>
<path d="M0 0 C1.01449219 0.00128906 2.02898438 0.00257812 3.07421875 0.00390625 C10.59402375 0.09402375 10.59402375 0.09402375 12.875 2.375 C13.125 4.875 13.125 4.875 12.875 7.375 C10.875 9.375 10.875 9.375 7.3984375 9.5703125 C6.01549032 9.55701493 4.63261346 9.53316232 3.25 9.5 C2.54359375 9.49097656 1.8371875 9.48195313 1.109375 9.47265625 C-0.63556098 9.44907603 -2.38032295 9.41320461 -4.125 9.375 C-4.455 8.715 -4.785 8.055 -5.125 7.375 C-7.14963255 6.72286708 -7.14963255 6.72286708 -9.125 6.375 C-8.55155063 9.24224686 -8.2635485 10.2364515 -6.125 12.375 C-7.300625 12.4678125 -7.300625 12.4678125 -8.5 12.5625 C-9.36625 12.830625 -10.2325 13.09875 -11.125 13.375 C-12.37214403 15.78452023 -12.37214403 15.78452023 -13.125 18.375 C-13.785 19.035 -14.445 19.695 -15.125 20.375 C-15.2331866 17.79054227 -15.31237237 15.21062648 -15.375 12.625 C-15.40851562 11.89539062 -15.44203125 11.16578125 -15.4765625 10.4140625 C-15.53566962 7.16317078 -15.3364192 4.77406937 -13.8046875 1.8828125 C-9.41029371 -0.58983474 -4.94464371 -0.12029223 0 0 Z " fill="#1C63C2" transform="translate(15.125,-0.375)"/>
<path d="M0 0 C0.10812003 2.75105422 0.18734945 5.49785087 0.25 8.25 C0.30027344 9.41595703 0.30027344 9.41595703 0.3515625 10.60546875 C0.45013825 16.37214991 0.45013825 16.37214991 -1.80078125 19.51171875 C-5.06496833 21.72069793 -7.14948579 21.60797593 -11 21 C-14 19.1875 -14 19.1875 -16 16 C-16.11063367 12.24899163 -15.6525234 8.68901841 -15 5 C-13.35 5 -11.7 5 -10 5 C-10 8.3 -10 11.6 -10 15 C-8.68 15 -7.36 15 -6 15 C-6.08701172 14.00419922 -6.08701172 14.00419922 -6.17578125 12.98828125 C-6.54804145 5.70261725 -6.54804145 5.70261725 -3.5625 1.875 C-1 0 -1 0 0 0 Z " fill="#1A61C0" transform="translate(32,11)"/>
<path d="M0 0 C3 0.3125 3 0.3125 6 1 C7.32229189 3.64458379 7.09677194 5.67761301 7.0625 8.625 C7.05347656 9.62789062 7.04445313 10.63078125 7.03515625 11.6640625 C7.02355469 12.43492188 7.01195312 13.20578125 7 14 C5.68 14 4.36 14 3 14 C3 10.7 3 7.4 3 4 C1.35 4 -0.3 4 -2 4 C-2 7.3 -2 10.6 -2 14 C-3.32 14 -4.64 14 -6 14 C-6 9.71 -6 5.42 -6 1 C-4.35 1 -2.7 1 -1 1 C-0.67 0.67 -0.34 0.34 0 0 Z " fill="#F8FAFC" transform="translate(19,12)"/>
<path d="M0 0 C1.32 0 2.64 0 4 0 C4 4.29 4 8.58 4 13 C2.68 13 1.36 13 0 13 C0 8.71 0 4.42 0 0 Z " fill="#FCFDFE" transform="translate(6,13)"/>
</svg>
