<?xml version="1.0" encoding="UTF-8"?>
<svg version="1.1" xmlns="http://www.w3.org/2000/svg" width="220" height="220">
<path d="M0 0 C2.34553006 0.00314999 4.68978197 -0.02034273 7.03515625 -0.0456543 C22.96773476 -0.11406639 40.62638407 1.5367512 52.61328125 13.31567383 C57.93095327 21.10227822 58.32536264 28.32654418 58.20703125 37.53833008 C58.20531525 38.89253126 58.20539079 40.24673577 58.20715332 41.60093689 C58.20551056 44.42260038 58.1870071 47.24345929 58.15527344 50.06494141 C58.11555996 53.65799245 58.11123917 57.24999552 58.11873627 60.84322453 C58.12182438 63.6342049 58.10962128 66.42495541 58.09260559 69.21587944 C58.0822876 71.17710424 58.08172991 73.13837272 58.0814209 75.09962463 C57.95822365 84.45509123 57.07903375 92.66030239 50.48828125 99.74536133 C43.61862909 105.49869501 36.02946551 107.43002051 27.25341797 107.45751953 C25.35521805 107.46807121 25.35521805 107.46807121 23.41867065 107.47883606 C22.74693691 107.48065195 22.07520317 107.48246784 21.38311386 107.48433876 C19.2624831 107.49155887 17.14207652 107.50726823 15.02151489 107.52568054 C8.99419325 107.57787424 2.96699566 107.62603783 -3.06054688 107.64160156 C-6.7559399 107.65176532 -10.45076437 107.68129918 -14.14593124 107.72292137 C-15.54350327 107.73511867 -16.94115601 107.74037355 -18.33877945 107.73812294 C-29.22743918 107.72490902 -39.75593776 108.74881029 -47.95703125 116.63598633 C-56.2541653 126.38398534 -55.69602445 140.45090502 -56.01171875 152.56567383 C-56.06972656 154.41612305 -56.06972656 154.41612305 -56.12890625 156.30395508 C-56.22204635 159.3077232 -56.30786406 162.31150261 -56.38671875 165.31567383 C-59.67820985 165.40425246 -62.9693868 165.45658423 -66.26171875 165.50317383 C-67.17953125 165.52831055 -68.09734375 165.55344727 -69.04296875 165.5793457 C-78.91806548 165.68366011 -87.05790349 163.85967728 -94.28125 156.86645508 C-105.21779545 143.61679983 -106.97747953 127.03275518 -106.82421875 110.44067383 C-106.82117737 109.74045105 -106.81813599 109.04022827 -106.81500244 108.31878662 C-106.71494556 92.73881805 -105.36412398 78.02592847 -94.28125 66.03833008 C-87.23519966 59.33184843 -80.43549521 56.83689399 -70.859375 56.97509766 C-70.04866043 56.97465958 -69.23794586 56.9742215 -68.40266418 56.97377014 C-65.75126155 56.97584247 -63.10050946 56.99909896 -60.44921875 57.02270508 C-58.59977565 57.02830659 -56.75032807 57.03257406 -54.90087891 57.03556824 C-50.0543774 57.04697334 -45.20814946 57.07640288 -40.36175537 57.10968018 C-35.40787455 57.14047487 -30.45394914 57.1540936 -25.5 57.16918945 C-15.79545332 57.20127701 -6.09110886 57.2524205 3.61328125 57.31567383 C3.61328125 55.00567383 3.61328125 52.69567383 3.61328125 50.31567383 C-13.87671875 50.31567383 -31.36671875 50.31567383 -49.38671875 50.31567383 C-49.46921875 45.15942383 -49.55171875 40.00317383 -49.63671875 34.69067383 C-49.67313477 33.07467285 -49.70955078 31.45867188 -49.74707031 29.79370117 C-49.75706055 28.50931152 -49.76705078 27.22492187 -49.77734375 25.90161133 C-49.79829102 24.59240723 -49.81923828 23.28320312 -49.84082031 21.93432617 C-49.22161941 17.00002734 -47.09707301 14.02983734 -43.6328125 10.55786133 C-30.81715292 0.86999772 -15.48030438 -0.04332175 0 0 Z M-33.76171875 21.50317383 C-35.68375857 24.28841511 -35.68375857 24.28841511 -35.38671875 27.87817383 C-34.29324139 31.63700226 -33.56893739 33.07952019 -30.38671875 35.31567383 C-27.52711815 36.48677832 -27.52711815 36.48677832 -24.38671875 36.31567383 C-20.14463735 34.06846242 -20.14463735 34.06846242 -17.38671875 30.31567383 C-16.88479179 25.88198572 -16.84008541 24.01414976 -19.63671875 20.44067383 C-25.07825623 16.23584941 -28.6729637 16.81616259 -33.76171875 21.50317383 Z " fill="#3672A4" transform="translate(106.38671875,-0.315673828125)"/>
<path d="M0 0 C3.2914911 -0.08857863 6.58266805 -0.1409104 9.875 -0.1875 C10.7928125 -0.21263672 11.710625 -0.23777344 12.65625 -0.26367188 C22.53134673 -0.36798628 30.67118474 1.45599655 37.89453125 8.44921875 C48.8310767 21.698874 50.59076078 38.28291865 50.4375 54.875 C50.43293793 55.92533417 50.43293793 55.92533417 50.42828369 56.99688721 C50.32822681 72.57685577 48.97740523 87.28974536 37.89453125 99.27734375 C30.84848091 105.9838254 24.04877646 108.47877984 14.47265625 108.34057617 C13.2565844 108.34123329 13.2565844 108.34123329 12.01594543 108.34190369 C9.3645428 108.33983136 6.71379071 108.31657486 4.0625 108.29296875 C2.2130569 108.28736724 0.36360932 108.28309977 -1.48583984 108.28010559 C-6.33234135 108.26870048 -11.17856929 108.23927095 -16.02496338 108.20599365 C-20.9788442 108.17519896 -25.93276961 108.16158023 -30.88671875 108.14648438 C-40.59126543 108.11439682 -50.29560989 108.06325333 -60 108 C-60 110.31 -60 112.62 -60 115 C-42.51 115 -25.02 115 -7 115 C-6.87625 120.115 -6.7525 125.23 -6.625 130.5 C-6.54306396 132.89668945 -6.54306396 132.89668945 -6.45947266 135.34179688 C-6.31082349 148.03291885 -6.31082349 148.03291885 -11.35888672 153.56152344 C-21.84694129 162.75456383 -36.24404887 165.11879129 -49.84765625 165.203125 C-50.58140976 165.20882507 -51.31516327 165.21452515 -52.07115173 165.22039795 C-53.61830226 165.22979221 -55.16547229 165.23635958 -56.71264648 165.24023438 C-59.03211255 165.24987371 -61.35066549 165.280922 -63.66992188 165.3125 C-80.47838342 165.43126947 -95.98965417 163.02851144 -108.87109375 151.51171875 C-114.91034129 144.38651477 -114.45402507 137.07432564 -114.43359375 128.10546875 C-114.43816367 126.74937175 -114.44347163 125.39327706 -114.44947815 124.03718567 C-114.45838253 121.20202194 -114.45601853 118.36714025 -114.44604492 115.53198242 C-114.43458162 111.92429011 -114.45473827 108.31758053 -114.48396206 104.7100172 C-114.50244112 101.91044573 -114.5020082 99.11110445 -114.49632454 96.3114872 C-114.49609948 94.3430578 -114.51289581 92.37464968 -114.53013611 90.40629578 C-114.46221798 81.58842303 -113.37183815 74.21479769 -107.75 67.1875 C-97.87683468 59.33384576 -90.06355948 57.7126889 -77.52780724 57.69503975 C-75.41140566 57.69134015 -73.2954579 57.67451617 -71.17915344 57.65428162 C-65.16647842 57.59921875 -59.15373799 57.5682831 -53.14086914 57.54370117 C-49.44975942 57.52770984 -45.75897371 57.49737357 -42.06803322 57.45893669 C-40.67241704 57.44738978 -39.27674266 57.44135725 -37.88107872 57.44125557 C-26.77421829 57.44015296 -16.96900516 56.95185983 -8.6875 48.9375 C-0.15336259 39.13904593 -0.69562252 25.05388925 -0.375 12.75 C-0.33632812 11.51636719 -0.29765625 10.28273438 -0.2578125 9.01171875 C-0.1646724 6.00795063 -0.07885469 3.00417122 0 0 Z M-38 133 C-39.56935594 136.13871188 -39.35201103 138.53855822 -39 142 C-36.8663311 144.72635471 -35.13961109 146.4658073 -32 147.9375 C-27.91441464 148.06517454 -25.57115312 146.52606208 -22.625 143.8125 C-20.70296018 141.02725872 -20.70296018 141.02725872 -21 137.4375 C-22.09347736 133.67867157 -22.81778136 132.23615364 -26 130 C-31.32507718 128.14779924 -33.74259129 129.53466733 -38 133 Z " fill="#FFD242" transform="translate(170,55)"/>
</svg>
