<?xml version="1.0" encoding="UTF-8"?>
<svg version="1.1" xmlns="http://www.w3.org/2000/svg" width="128" height="128">
<path d="M0 0 C2.51696575 0.70458411 3.69208318 1.65395501 5.61877441 3.41165161 C6.31712402 4.0480658 7.01547363 4.68447998 7.73498535 5.34017944 C15.63890622 12.79734467 23.39308691 20.40488019 31.12155914 28.0432415 C34.18417395 31.06994031 37.25509065 34.08703333 40.34729004 37.08352661 C43.35911006 40.00247306 46.34821474 42.9429778 49.32267761 45.89996719 C50.45366161 47.01689585 51.5923739 48.1260573 52.7389679 49.22695541 C62.76625688 58.87319306 62.76625688 58.87319306 63.25549316 64.34524536 C62.4538205 69.78059438 58.93861897 72.92246258 55.12463379 76.59475708 C53.79453666 77.95620957 52.46454753 79.31776961 51.13656902 80.68128872 C48.56435876 83.30811731 45.95748626 85.90022505 43.35510254 88.49710083 C42.22632006 89.6265582 41.09768595 90.75616387 39.9691925 91.88591003 C37.62003723 94.23652996 35.26910684 96.58535561 32.91687012 98.93289185 C29.89942035 101.94460541 26.8865358 104.96084006 23.8749342 107.97840023 C21.55281208 110.30412775 19.22832374 112.62747849 16.90310097 114.95010567 C15.79036343 116.06217592 14.67836882 117.17499006 13.56712914 118.28855705 C12.02123542 119.83698117 10.47218888 121.38217949 8.92224121 122.92654419 C8.04178635 123.80620346 7.16133148 124.68586273 6.25419617 125.59217834 C3.63415564 128.05598851 2.5743734 128.52279874 -1.00036621 129.09475708 C-10.41871855 127.87948581 -18.42136922 116.19523298 -24.99645996 109.60647583 C-26.14833756 108.45527308 -27.30036346 107.30421871 -28.45252991 106.15330505 C-30.85022835 103.75707153 -33.24613203 101.35906203 -35.64074707 98.95974731 C-38.71299503 95.88176392 -41.78976342 92.80834422 -44.86785793 89.73620892 C-47.23990854 87.36776366 -49.60958252 84.99695215 -51.97853279 82.62540627 C-53.11293171 81.49034 -54.24807466 80.35601683 -55.38397026 79.22244835 C-56.96352706 77.64542179 -58.53985903 76.06524196 -60.11535645 74.48416138 C-61.01278061 73.58594162 -61.91020477 72.68772186 -62.83482361 71.76228333 C-65.32429326 69.11789315 -65.79854917 68.07486356 -66.37536621 64.46975708 C-65.84623903 60.3690214 -65.46282734 59.72223198 -62.81555176 56.83670044 C-61.85919327 55.78904007 -61.85919327 55.78904007 -60.8835144 54.72021484 C-57.73766324 51.39059315 -54.56092625 48.09825952 -51.33239746 44.84866333 C-50.64151535 44.15208115 -49.95063324 43.45549896 -49.23881531 42.73780823 C-47.7923054 41.2819311 -46.34439845 39.82744079 -44.8951416 38.3742981 C-42.67624468 36.14558413 -40.46823274 33.90642685 -38.26013184 31.66702271 C-36.84737809 30.24774792 -35.43398918 28.82910503 -34.01989746 27.41116333 C-33.36254105 26.74146011 -32.70518463 26.0717569 -32.02790833 25.38175964 C-31.41014023 24.76699265 -30.79237213 24.15222565 -30.15588379 23.51882935 C-29.34816277 22.70563988 -29.34816277 22.70563988 -28.52412415 21.87602234 C-26.59374926 20.37590991 -25.31167263 19.81470258 -22.87536621 19.59475708 C-20.52712367 21.31639604 -18.64909118 22.91876228 -16.62536621 24.96975708 C-16.07759521 25.51833374 -15.52982422 26.0669104 -14.9654541 26.6321106 C-12.62773131 29.12900058 -11.06072276 30.87368797 -10.19958496 34.22366333 C-10.31286621 36.53225708 -10.31286621 36.53225708 -10.63708496 38.69241333 C-11.06771192 40.82016744 -11.06771192 40.82016744 -9.62536621 43.46975708 C-8.02034643 45.67378558 -8.02034643 45.67378558 -5.80358887 46.78274536 C-3.87536621 48.59475708 -3.87536621 48.59475708 -3.3260498 51.79348755 C-3.22651378 59.25868917 -3.22651378 59.25868917 -3.24401855 62.21829224 C-3.2503287 64.45645061 -3.20348384 66.68928679 -3.15270996 68.92678833 C-3.1481622 70.3551671 -3.14675782 71.78356004 -3.14880371 73.21194458 C-3.1428418 74.50729126 -3.13687988 75.80263794 -3.1307373 77.13723755 C-4.15393885 81.88824749 -5.99300988 82.81069479 -9.87536621 85.59475708 C-11.42561085 88.69524636 -11.16528637 91.17369926 -10.87536621 94.59475708 C-9.46658525 97.58492138 -9.46658525 97.58492138 -6.87536621 99.59475708 C-2.92607342 100.74364226 -0.84577762 101.02605104 2.93713379 99.34475708 C6.05754506 96.84842806 7.04657906 95.19689357 7.56213379 91.21975708 C7.01431204 86.68066256 5.57053974 85.46634537 2.12463379 82.59475708 C-0.74403505 79.72608824 -0.13389979 77.69820095 -0.14099121 73.68850708 C-0.14290466 73.00800293 -0.14481812 72.32749878 -0.14678955 71.62637329 C-0.14815084 70.18728262 -0.14445826 68.74817964 -0.1361084 67.30911255 C-0.12540749 65.10326621 -0.13600493 62.89823427 -0.14880371 60.69241333 C-0.14748211 59.29527611 -0.14491969 57.8981394 -0.14099121 56.50100708 C-0.13873535 55.22547974 -0.13647949 53.94995239 -0.13415527 52.63577271 C0.12463379 49.59475708 0.12463379 49.59475708 2.12463379 47.59475708 C6.98753893 47.94729178 9.97467728 51.61729728 13.21057129 54.91116333 C15.8908884 58.66907732 15.91077288 61.69379771 15.98010254 66.20022583 C15.94519036 68.76841907 15.94519036 68.76841907 17.74963379 71.21975708 C20.97842811 73.08905905 23.39726246 73.5293646 27.12463379 73.59475708 C30.00480461 72.37868496 31.57701878 71.29172164 33.49963379 68.84475708 C34.45298923 65.41267749 34.04118035 63.01653092 33.12463379 59.59475708 C31.23310952 56.96418157 31.23310952 56.96418157 28.12463379 55.59475708 C26.03644013 55.57694036 26.03644013 55.57694036 23.81213379 55.78225708 C19.66616688 55.99646537 17.91507074 55.08298316 14.81213379 52.34475708 C13.57497852 51.10266307 12.34483018 49.85351498 11.12463379 48.59475708 C10.29963379 47.99663208 9.47463379 47.39850708 8.62463379 46.78225708 C6.44005847 43.59641808 7.07507364 40.77731649 7.24182129 37.00881958 C7.07263508 33.52358359 5.6479931 31.89546704 3.12463379 29.59475708 C1.18927659 28.3959534 1.18927659 28.3959534 -0.90661621 28.84866333 C-5.44889033 29.4164476 -7.94444633 29.27538849 -11.72302246 26.51272583 C-19.80229738 18.57294919 -19.80229738 18.57294919 -19.87536621 14.59475708 C-17.9993679 11.54625982 -15.39236903 9.12630905 -12.87536621 6.59475708 C-12.0110498 5.67823364 -12.0110498 5.67823364 -11.12927246 4.74319458 C-7.74272567 1.44268016 -4.86841652 -0.54702601 0 0 Z " fill="#EF9532" transform="translate(65.8753662109375,-0.594757080078125)"/>
</svg>
